<?xml version="1.0" encoding="UTF-8"?>
<svg width="370px" height="166px" viewBox="0 0 370 166" version="1.1" xmlns="http://www.w3.org/2000/svg" xmlns:xlink="http://www.w3.org/1999/xlink">
    <!-- Generator: Sketch 54 (76480) - https://sketchapp.com -->
    <desc>Created with Sketch.</desc>
    <g id="Page-4-Copy-3" stroke="none" stroke-width="1" fill="none" fill-rule="evenodd">
        <g id="m_m" transform="translate(-55.000000, -60.000000)" fill="#00B300">
            <path d="M72.2897196,156.331606 L175.163551,156.331606 L175.163551,97.8445596 L72.2897196,97.8445596 L72.2897196,156.331606 Z M64.0942787,80.642487 L183.358992,80.642487 C188.373404,80.642487 192.453271,84.7106494 192.453271,89.7122383 L192.453271,164.463928 C192.453271,169.465516 188.373404,173.533679 183.358992,173.533679 L64.0942787,173.533679 C59.0798671,173.533679 55,169.465516 55,164.463928 L55,89.7122383 C55,84.7106494 59.0798671,80.642487 64.0942787,80.642487 Z M406.918622,85.7408286 L406.918622,60 L425,60 L425,134.339938 L407.538313,134.339938 L407.538313,129.863272 C406.313044,129.606849 405.481657,129.644744 404.622044,130.66412 C401.196423,134.72773 396.490363,135.79258 391.414799,135.681422 C380.851825,135.452788 373.013952,129.643481 369.798744,119.252664 C367.003078,110.222279 367.259679,101.183052 371.307557,92.489933 C376.004635,82.4022768 387.400279,77.4481336 398.060761,80.7007901 C400.438167,81.4271114 401.93415,82.4464876 403.540472,84.318502 C404.556611,85.5033531 405.385432,85.7408286 406.918622,85.7408286 Z M406.502626,115.980083 C409.204909,110.743433 409.213916,105.357343 406.82304,100.052879 C405.094865,96.2189479 401.857274,94.3829806 397.542629,94.4043291 C393.441593,94.4156312 390.586181,95.7291892 388.609655,99.7778611 C386.43496,104.229642 386.404077,110.641714 388.574911,115.623439 C390.207862,119.369465 393.411997,121.055993 397.480862,121.067295 C401.44421,121.078597 404.657353,119.557834 406.502626,115.980083 Z M239.521583,149.497196 C250.811021,148.878794 258.950218,154.459714 262.992815,165.013353 C266.254922,173.529453 265.849891,186.564351 260.527911,195.443841 C254.843331,204.927708 243.904919,207.605326 234.953089,204.913682 C232.624481,204.213676 230.605755,202.934795 229.148928,200.99926 C228.387727,199.988141 227.599524,199.589048 226.143983,199.993241 L226.143983,225.139896 L208.014019,225.139896 L208.014019,150.82708 L225.529365,150.82708 L225.529365,155.390505 C226.790747,155.646792 227.613668,155.609815 228.462304,154.555344 C231.267948,151.074441 235.203822,149.733082 239.521583,149.497196 Z M245.223895,185.14981 C247.079012,181.821626 247.552578,174.028711 245.918459,169.662975 C244.627834,166.210735 242.278946,163.842411 238.472738,163.351203 C234.363447,162.819897 230.598913,163.735899 228.393989,167.466323 C225.649832,172.110244 225.215414,180.17633 228.381361,185.558315 C231.904692,191.548045 241.849579,191.205954 245.223895,185.14981 Z M288.02189,99.5871306 C291.785295,99.5551523 295.549983,99.580735 299.391659,99.580735 C299.81124,95.5258905 298.194503,92.8819272 294.984125,92.1029366 C290.042811,90.9031119 286.316617,92.4534184 284.846156,96.3816289 L266.782325,96.3816289 C266.955547,95.061566 267.65485,92.2615488 268.461935,90.4515788 C270.726651,85.3747088 274.941716,82.3943341 280.093462,80.7775129 C288.530007,78.1271539 297.020444,78.313907 305.296599,81.3544008 C312.126672,83.8627762 315.713006,89.1315158 316.629157,96.2460411 C316.81906,97.7234371 316.920427,99.2225783 316.922993,100.711487 C316.947372,111.468976 316.937107,134.335997 316.937107,134.335997 L300.294979,134.335997 L300.294979,130.206963 C298.792439,129.663332 298.031546,130.203125 296.928059,131.143286 C293.240358,134.286111 289.346075,135.616407 284.580549,135.68548 C279.254298,135.762227 274.327099,134.637872 270.187738,131.104912 C261.656242,123.820263 261.435544,107.820895 274.866011,101.894682 C279.068245,100.038664 283.511706,99.6242254 288.02189,99.5871306 Z M299.593441,110.789141 C299.593441,110.789141 292.877704,110.661439 289.624325,110.846038 C288.125345,110.929487 286.400616,111.20512 285.056437,112.075009 C283.260757,113.236969 282.334538,114.701114 282.360338,116.787331 C282.387428,119.025273 283.556167,120.995167 285.484716,121.819539 C288.819365,123.244488 292.802884,123.220465 296.124632,120.90919 C299.690191,118.429753 299.781781,114.713758 299.593441,110.789141 Z M320.951001,165.914435 C321.140903,167.391831 321.242269,168.890972 321.246118,170.37988 C321.270497,181.13737 321.258949,204.00439 321.258949,204.00439 L304.616938,204.00439 L304.616938,199.875356 C303.115693,199.331726 302.353522,199.871519 301.251326,200.81168 C297.562368,203.954504 293.668112,205.2848 288.90262,205.353873 C283.576407,205.430621 278.649242,204.306265 274.511194,200.773306 C265.978474,193.488657 265.757778,177.489289 279.188151,171.563076 C283.391638,169.707058 287.833785,169.292619 292.345219,169.255524 C296.107315,169.223546 299.871976,169.249129 303.713625,169.249129 C304.133204,165.194284 302.516478,162.5516 299.306122,161.77133 C294.364844,160.571506 290.639959,162.121812 289.168225,166.050023 L271.105805,166.050023 C271.277742,164.72996 271.97704,161.929943 272.78412,160.119973 C275.048819,155.043103 279.263855,152.062728 284.416847,150.445907 C292.853333,147.795548 301.342427,147.982301 309.618523,151.022795 C316.448548,153.53117 320.034857,158.79991 320.951001,165.914435 Z M300.44669,190.5775 C304.012166,188.097952 304.105043,184.383056 303.915418,180.457001 C303.915418,180.457001 297.199837,180.330558 293.947825,180.5139 C292.44888,180.597352 290.722901,180.872998 289.380043,181.742926 C287.584406,182.904938 286.658208,184.369148 286.682717,186.455458 C286.709806,188.693499 287.878519,190.663481 289.807023,191.48789 C293.141594,192.912902 297.125019,192.888878 300.44669,190.5775 Z M365.663157,152.693321 C366.173251,151.598982 366.649853,151.170984 367.937968,151.170984 L384.369159,151.170984 L352.06453,224.596836 C351.547996,225.734744 350.956752,226 349.695687,226 L333.468018,226 L344.302351,200.594399 C344.736446,199.597448 344.597329,198.691478 344.17998,197.830358 L322.126168,151.170984 L338.928336,151.170984 C340.001336,151.170984 340.410956,151.572072 340.748443,152.294797 L351.775993,175.95253 C352.405881,177.173731 353.169733,177.374915 353.974804,177.374915 C355.020753,177.374915 355.657082,176.668848 356.003585,175.84489 C356.3488,175.020931 365.663157,152.693321 365.663157,152.693321 Z M219.37165,132.552686 C211.229413,128.434431 207.084111,121.431991 205.835788,112.600211 C204.957102,106.390186 205.393247,100.272332 207.914195,94.4386716 C211.797297,85.4494328 218.892018,80.6987827 228.354203,79.3290183 C235.392646,78.3087359 242.20854,79.1203533 248.480851,82.7636705 C254.292715,86.1407158 257.995476,91.9730957 258.478945,98.558206 L242.303188,98.574848 C241.239044,98.574848 240.680112,98.2816928 240.332219,97.4022272 C239.651781,95.6829809 238.280672,94.5564457 236.484929,94.125034 C231.467336,92.9216895 226.756708,94.2274462 224.807482,99.6693793 C222.81477,105.229087 222.817328,110.884805 225.464898,116.320338 C228.193046,121.92357 235.736702,121.819878 238.793559,119.328699 C239.803984,118.50556 240.472911,117.217725 240.979403,115.992618 C241.233928,115.378144 241.624028,115.032503 242.229005,115.032503 L259.018692,115.032503 C258.807653,118.903688 257.490263,122.415149 255.30314,125.469596 C251.448176,130.852642 246.073737,133.844361 239.663292,135.032343 C232.654266,136.334259 225.792327,135.796595 219.37165,132.552686 Z M325.584112,81.0003142 L342.852664,81.0003142 L342.852664,86.8622893 C344.256066,87.3095732 345.038124,86.8814586 345.844226,85.8539835 C347.681683,83.5153277 350.231597,82.1325814 353.096613,81.6392912 C356.496921,81.0539882 359.74031,80.8137329 363.621495,80.642487 L363.621495,97.3990202 C361.058926,97.4808092 358.31413,97.5217038 355.700942,97.7887962 C347.965147,98.5772938 343.729632,103.052689 343.523361,110.933831 C343.33101,118.233505 343.418327,134.829016 343.418327,134.829016 L325.584112,134.829016 L325.584112,81.0003142 Z" id="Combined-Shape-Copy-6"></path>
        </g>
    </g>
</svg>
